<svg width="1055" height="514" viewBox="0 0 1055 514" fill="none" xmlns="http://www.w3.org/2000/svg">
<path d="M989 257C989 326.403 938.945 389.847 856.677 436.112C774.504 482.323 660.78 511 535 511C409.22 511 295.496 482.323 213.323 436.112C131.055 389.847 81 326.403 81 257C81 187.597 131.055 124.153 213.323 77.8884C295.496 31.6769 409.22 3 535 3C660.78 3 774.504 31.6769 856.677 77.8884C938.945 124.153 989 187.597 989 257Z" fill="#DE7070" fill-opacity="0.24" stroke="#DE7070" stroke-width="6"/>
<path d="M243 201C250.732 201 257 195.851 257 189.5C257 183.149 250.732 178 243 178C235.268 178 229 183.149 229 189.5C229 195.851 235.268 201 243 201Z" fill="#FFCA0D"/>
<path d="M236.907 188.773C239.587 184.035 246.413 184.035 249.093 188.773L257.877 204.304C260.516 208.97 257.145 214.75 251.784 214.75H234.216C228.855 214.75 225.484 208.97 228.123 204.304L236.907 188.773Z" fill="#FFCA0D"/>
<path d="M535.5 84C543.508 84 550 79.0751 550 73C550 66.9249 543.508 62 535.5 62C527.492 62 521 66.9249 521 73C521 79.0751 527.492 84 535.5 84Z" fill="#FFCA0D"/>
<path d="M528.938 72.5C531.632 67.8333 538.368 67.8333 541.062 72.5L549.722 87.5C552.417 92.1667 549.049 98 543.66 98H526.34C520.951 98 517.583 92.1667 520.278 87.5L528.938 72.5Z" fill="#FFCA0D"/>
<path d="M513 212C520.732 212 527 207.075 527 201C527 194.925 520.732 190 513 190C505.268 190 499 194.925 499 201C499 207.075 505.268 212 513 212Z" fill="#E85E23"/>
<path d="M506.406 200.779C509.086 196.039 515.914 196.039 518.594 200.779L526.947 215.555C529.585 220.221 526.214 226 520.853 226H504.147C498.786 226 495.415 220.221 498.053 215.555L506.406 200.779Z" fill="#E85E23"/>
<path d="M812 188C819.732 188 826 183.075 826 177C826 170.925 819.732 166 812 166C804.268 166 798 170.925 798 177C798 183.075 804.268 188 812 188Z" fill="#FFCA0D"/>
<path d="M804.938 176.5C807.632 171.833 814.368 171.833 817.062 176.5L825.722 191.5C828.417 196.167 825.049 202 819.66 202H802.34C796.951 202 793.583 196.167 796.278 191.5L804.938 176.5Z" fill="#FFCA0D"/>
<path d="M458 412C465.732 412 472 406.851 472 400.5C472 394.149 465.732 389 458 389C450.268 389 444 394.149 444 400.5C444 406.851 450.268 412 458 412Z" fill="#FFCA0D"/>
<path d="M451.438 399.5C454.132 394.833 460.868 394.833 463.562 399.5L472.655 415.25C475.35 419.917 471.982 425.75 466.593 425.75H448.407C443.018 425.75 439.65 419.917 442.345 415.25L451.438 399.5Z" fill="#FFCA0D"/>
<path d="M79 452C86.732 452 93 446.851 93 440.5C93 434.149 86.732 429 79 429C71.268 429 65 434.149 65 440.5C65 446.851 71.268 452 79 452Z" fill="white"/>
<path d="M72.4063 439.779C75.086 435.039 81.914 435.039 84.5937 439.779L92.9469 454.555C95.5849 459.221 92.2136 465 86.8532 465H70.1468C64.7864 465 61.4151 459.221 64.0531 454.555L72.4063 439.779Z" fill="white"/>
<path d="M1015.5 444C1023.51 444 1030 438.851 1030 432.5C1030 426.149 1023.51 421 1015.5 421C1007.49 421 1001 426.149 1001 432.5C1001 438.851 1007.49 444 1015.5 444Z" fill="white"/>
<path d="M1009.41 431.779C1012.09 427.039 1018.91 427.039 1021.59 431.779L1029.95 446.555C1032.58 451.221 1029.21 457 1023.85 457H1007.15C1001.79 457 998.415 451.221 1001.05 446.555L1009.41 431.779Z" fill="white"/>
<path d="M1039.5 307C1047.51 307 1054 302.075 1054 296C1054 289.925 1047.51 285 1039.5 285C1031.49 285 1025 289.925 1025 296C1025 302.075 1031.49 307 1039.5 307Z" fill="white"/>
<path d="M1032.94 295.5C1035.63 290.833 1042.37 290.833 1045.06 295.5L1053.72 310.5C1056.42 315.167 1053.05 321 1047.66 321H1030.34C1024.95 321 1021.58 315.167 1024.28 310.5L1032.94 295.5Z" fill="white"/>
<path d="M16.5 175C24.5081 175 31 169.851 31 163.5C31 157.149 24.5081 152 16.5 152C8.49187 152 2 157.149 2 163.5C2 169.851 8.49187 175 16.5 175Z" fill="white"/>
<path d="M9.90698 162.773C12.587 158.035 19.413 158.035 22.093 162.773L30.8767 178.304C33.5158 182.97 30.1447 188.75 24.7837 188.75H7.21635C1.85534 188.75 -1.51584 182.97 1.12332 178.304L9.90698 162.773Z" fill="white"/>
<path d="M684.5 331C692.508 331 699 326.075 699 320C699 313.925 692.508 309 684.5 309C676.492 309 670 313.925 670 320C670 326.075 676.492 331 684.5 331Z" fill="#FFCA0D"/>
<path d="M677.938 319.5C680.632 314.833 687.368 314.833 690.062 319.5L698.722 334.5C701.417 339.167 698.049 345 692.66 345H675.34C669.951 345 666.583 339.167 669.278 334.5L677.938 319.5Z" fill="#FFCA0D"/>
<path d="M546 176H539C536.791 176 535 177.791 535 180V208C535 210.209 536.791 212 539 212H546C548.209 212 550 210.209 550 208V180C550 177.791 548.209 176 546 176Z" fill="#E85E23"/>
<path d="M543.5 236C548.747 236 553 231.971 553 227C553 222.029 548.747 218 543.5 218C538.253 218 534 222.029 534 227C534 231.971 538.253 236 543.5 236Z" fill="#E85E23"/>
<path d="M556 172.5H499C494.306 172.5 490.5 176.306 490.5 181V232C490.5 236.694 494.306 240.5 499 240.5H556C560.694 240.5 564.5 236.694 564.5 232V181C564.5 176.306 560.694 172.5 556 172.5Z" stroke="black" stroke-width="3"/>
<path d="M114.5 164V357" stroke="#DE7070" stroke-width="3"/>
<path d="M955 358.5H113" stroke="#DE7070" stroke-width="3"/>
<path d="M164.5 110V405" stroke="#DE7070" stroke-width="3"/>
<path d="M913 406.5H163" stroke="#DE7070" stroke-width="3"/>
<path d="M224.5 73V441" stroke="#DE7070" stroke-width="3"/>
<path d="M844 442.5H223" stroke="#DE7070" stroke-width="3"/>
<path d="M983 228.5H87" stroke="#DE7070" stroke-width="3"/>
<path d="M982 294.5H86" stroke="#DE7070" stroke-width="3"/>
<path d="M223 71.5H844" stroke="#DE7070" stroke-width="3"/>
<path d="M281.5 46V468" stroke="#DE7070" stroke-width="3"/>
<path d="M338.5 30V485" stroke="#DE7070" stroke-width="3"/>
<path d="M407.5 13V501" stroke="#DE7070" stroke-width="3"/>
<path d="M467.5 7V507" stroke="#DE7070" stroke-width="3"/>
<path d="M528.5 2V511" stroke="#DE7070" stroke-width="3"/>
<path d="M597.5 7V507" stroke="#DE7070" stroke-width="3"/>
<path d="M661.5 13V501" stroke="#DE7070" stroke-width="3"/>
<path d="M716.5 22V491" stroke="#DE7070" stroke-width="3"/>
<path d="M764.5 37V476" stroke="#DE7070" stroke-width="3"/>
<path d="M819.5 56V454" stroke="#DE7070" stroke-width="3"/>
<path d="M866.5 82V432" stroke="#DE7070" stroke-width="3"/>
<path d="M914.5 117V394" stroke="#DE7070" stroke-width="3"/>
<path d="M913 118.5H163" stroke="#DE7070" stroke-width="3"/>
<path d="M956.5 159V357" stroke="#DE7070" stroke-width="3"/>
<path d="M955 160.5H113" stroke="#DE7070" stroke-width="3"/>
</svg>
