<svg width="149" height="149" viewBox="0 0 149 149" fill="none" xmlns="http://www.w3.org/2000/svg">
<g clip-path="url(#clip0)">
<path d="M14.5834 65.3388C13.9783 63.0809 13.9782 60.7035 14.5832 58.4455C15.1882 56.1876 16.3769 54.1287 18.0299 52.4758L52.4744 18.0309C54.1273 16.3779 56.1862 15.1891 58.4441 14.5841C60.702 13.9791 63.0794 13.9792 65.3373 14.5844L97.5688 23.2209C97.9042 18.8052 99.4416 14.5655 102.014 10.9609L63.1938 0.5599C60.4073 -0.186649 57.4735 -0.186634 54.6872 0.559949C51.9007 1.30653 49.3599 2.77339 47.3201 4.81309L4.81302 47.3206C2.77334 49.3605 1.30651 51.9013 0.559943 54.6878C-0.186632 57.4742 -0.186648 60.4081 0.559894 63.1944L11.3609 103.504C14.8917 100.808 19.0955 99.1331 23.5132 98.6635L14.5834 65.3388Z" fill="#FFBEED"/>
<path d="M125.188 49.2225L134.417 83.661C135.022 85.9193 135.021 88.2965 134.417 90.554C133.811 92.8123 132.622 94.871 130.969 96.5239L96.5247 130.97C94.8718 132.623 92.8131 133.811 90.5548 134.416C88.2973 135.021 85.9194 135.021 83.6618 134.416L50.3376 125.486C49.868 129.904 48.1935 134.108 45.4968 137.639L85.8062 148.44C88.5923 149.187 91.5263 149.187 94.3125 148.44C97.0994 147.693 99.6398 146.227 101.68 144.187L144.187 101.679C146.227 99.6391 147.693 97.0986 148.44 94.3117C149.187 91.5255 149.187 88.5915 148.44 85.8053L137.232 43.9865C133.776 46.8074 129.608 48.6194 125.188 49.2225Z" fill="#FFBEED"/>
<path d="M12.3299 109.064C9.59995 111.793 7.74084 115.272 6.98764 119.058C6.23444 122.845 6.621 126.77 8.09842 130.337C9.57579 133.903 12.0777 136.952 15.2877 139.097C18.4977 141.241 22.2717 142.387 26.1324 142.387C29.993 142.387 33.767 141.241 36.977 139.097C40.187 136.952 42.6889 133.903 44.1663 130.337C45.6437 126.77 46.0303 122.845 45.277 119.058C44.5239 115.272 42.6648 111.793 39.9348 109.064C36.2713 105.409 31.3075 103.356 26.1324 103.356C20.9572 103.356 15.9934 105.409 12.3299 109.064Z" fill="#38CFFF"/>
<path d="M108.053 11.3237C105.323 14.0536 103.464 17.5317 102.711 21.3183C101.958 25.1048 102.344 29.0296 103.822 32.5965C105.299 36.1633 107.801 39.212 111.01 41.3568C114.221 43.5017 117.995 44.6466 121.855 44.6466C125.716 44.6466 129.49 43.5017 132.701 41.3568C135.91 39.212 138.412 36.1633 139.889 32.5965C141.367 29.0296 141.753 25.1048 141 21.3183C140.247 17.5317 138.388 14.0536 135.658 11.3237C131.995 7.66843 127.03 5.6156 121.855 5.6156C116.681 5.6156 111.716 7.66843 108.053 11.3237Z" fill="#38CFFF"/>
<path d="M85.957 126.243C85.173 126.243 84.393 126.14 83.6356 125.937L53.1314 117.763C52.1143 112.331 49.4792 107.334 45.5717 103.427C41.6642 99.5194 36.6669 96.8836 31.2353 95.8668L23.0621 65.3647C22.6569 63.8432 22.658 62.2421 23.0655 60.7213C23.4731 59.2005 24.2726 57.8133 25.3842 56.6983L56.6935 25.3879C57.8072 24.274 59.1944 23.4731 60.7159 23.0654C62.2374 22.6578 63.8393 22.6579 65.3606 23.0657L95.0097 31.0103C96.1857 36.4083 98.9645 41.3252 102.982 45.1171C107 48.9089 112.07 51.3989 117.527 52.2608L125.933 83.6399C126.338 85.1619 126.337 86.7631 125.929 88.2835C125.521 89.8047 124.722 91.1917 123.61 92.3071L92.3003 123.617C91.4694 124.452 90.4801 125.114 89.3913 125.565C88.3026 126.016 87.1355 126.246 85.957 126.243Z" fill="#38CFFF"/>
<path d="M83 52H65V82H83V52Z" fill="#FF7438"/>
<path d="M83 89H65V103H83V89Z" fill="#FF7438"/>
</g>
<defs>
<clipPath id="clip0">
<rect width="149" height="149" fill="white"/>
</clipPath>
</defs>
</svg>
